<mxfile host="app.diagrams.net" agent="Mozilla/5.0 (Windows NT 10.0; Win64; x64) AppleWebKit/537.36 (KHTML, like Gecko) Chrome/128.0.0.0 Safari/537.36 Edg/128.0.0.0" version="24.7.15" pages="2">
  <diagram name="Página-1" id="S20aT7EGJyw5d_lE1VYz">
    <mxGraphModel dx="872" dy="477" grid="1" gridSize="10" guides="1" tooltips="1" connect="1" arrows="1" fold="1" page="1" pageScale="1" pageWidth="827" pageHeight="1169" math="0" shadow="0">
      <root>
        <mxCell id="0" />
        <mxCell id="1" parent="0" />
        <mxCell id="2TvX9YCltFrzTYPZdCDH-1" value="&lt;div style=&quot;&quot;&gt;&lt;br&gt;&lt;/div&gt;&lt;div style=&quot;&quot;&gt;Visualizar turma&lt;/div&gt;&lt;div style=&quot;&quot;&gt;&lt;br&gt;&lt;/div&gt;" style="ellipse;whiteSpace=wrap;html=1;fillColor=none;align=center;" vertex="1" parent="1">
          <mxGeometry x="354" y="70" width="120" height="50" as="geometry" />
        </mxCell>
        <mxCell id="2TvX9YCltFrzTYPZdCDH-2" value="&lt;div style=&quot;&quot;&gt;&lt;span style=&quot;background-color: initial;&quot;&gt;Gerenciar turma&lt;/span&gt;&lt;br&gt;&lt;/div&gt;" style="ellipse;whiteSpace=wrap;html=1;fillColor=none;align=center;" vertex="1" parent="1">
          <mxGeometry x="354" y="130" width="120" height="50" as="geometry" />
        </mxCell>
        <mxCell id="2TvX9YCltFrzTYPZdCDH-3" value="&lt;div style=&quot;&quot;&gt;&lt;font&gt;Cadastrar turma&lt;/font&gt;&lt;br&gt;&lt;/div&gt;" style="ellipse;whiteSpace=wrap;html=1;fillColor=none;align=center;" vertex="1" parent="1">
          <mxGeometry x="354" y="190" width="120" height="50" as="geometry" />
        </mxCell>
        <mxCell id="2TvX9YCltFrzTYPZdCDH-4" value="&lt;div style=&quot;&quot;&gt;&lt;div&gt;&lt;br&gt;&lt;/div&gt;&lt;div&gt;Excluir turma&lt;/div&gt;&lt;div&gt;&lt;br&gt;&lt;/div&gt;&lt;/div&gt;" style="ellipse;whiteSpace=wrap;html=1;fillColor=none;align=center;" vertex="1" parent="1">
          <mxGeometry x="354" y="250" width="120" height="50" as="geometry" />
        </mxCell>
        <mxCell id="2TvX9YCltFrzTYPZdCDH-5" value="&lt;div style=&quot;&quot;&gt;&lt;div&gt;&lt;span style=&quot;background-color: initial;&quot;&gt;Listar turmas&lt;/span&gt;&lt;br&gt;&lt;/div&gt;&lt;/div&gt;" style="ellipse;whiteSpace=wrap;html=1;fillColor=none;align=center;" vertex="1" parent="1">
          <mxGeometry x="354" y="310" width="120" height="50" as="geometry" />
        </mxCell>
        <mxCell id="2TvX9YCltFrzTYPZdCDH-7" value="usuário" style="shape=umlActor;verticalLabelPosition=bottom;verticalAlign=top;html=1;outlineConnect=0;" vertex="1" parent="1">
          <mxGeometry x="50" y="50" width="50" height="90" as="geometry" />
        </mxCell>
        <mxCell id="2TvX9YCltFrzTYPZdCDH-8" value="" style="endArrow=none;html=1;rounded=0;entryX=0.876;entryY=0.183;entryDx=0;entryDy=0;entryPerimeter=0;" edge="1" parent="1">
          <mxGeometry width="50" height="50" relative="1" as="geometry">
            <mxPoint x="160" y="120" as="sourcePoint" />
            <mxPoint x="350.10000000000014" y="100.05600000000004" as="targetPoint" />
          </mxGeometry>
        </mxCell>
        <mxCell id="2TvX9YCltFrzTYPZdCDH-10" value="Professor" style="shape=umlActor;verticalLabelPosition=bottom;verticalAlign=top;html=1;outlineConnect=0;" vertex="1" parent="1">
          <mxGeometry x="50" y="200" width="50" height="90" as="geometry" />
        </mxCell>
        <mxCell id="2TvX9YCltFrzTYPZdCDH-11" value="" style="endArrow=none;html=1;rounded=0;exitX=0.845;exitY=0.233;exitDx=0;exitDy=0;exitPerimeter=0;" edge="1" parent="1">
          <mxGeometry width="50" height="50" relative="1" as="geometry">
            <mxPoint x="360.10000000000014" y="109.94499999999994" as="sourcePoint" />
            <mxPoint x="180" y="280" as="targetPoint" />
          </mxGeometry>
        </mxCell>
        <mxCell id="2TvX9YCltFrzTYPZdCDH-12" value="" style="endArrow=none;html=1;rounded=0;exitX=0.657;exitY=0.233;exitDx=0;exitDy=0;exitPerimeter=0;" edge="1" parent="1">
          <mxGeometry width="50" height="50" relative="1" as="geometry">
            <mxPoint x="360.0999999999999" y="169.91699999999992" as="sourcePoint" />
            <mxPoint x="180" y="280" as="targetPoint" />
          </mxGeometry>
        </mxCell>
        <mxCell id="2TvX9YCltFrzTYPZdCDH-13" value="" style="endArrow=none;html=1;rounded=0;exitX=0.5;exitY=0.183;exitDx=0;exitDy=0;exitPerimeter=0;" edge="1" parent="1">
          <mxGeometry width="50" height="50" relative="1" as="geometry">
            <mxPoint x="350.0999999999999" y="220" as="sourcePoint" />
            <mxPoint x="180" y="280" as="targetPoint" />
          </mxGeometry>
        </mxCell>
        <mxCell id="2TvX9YCltFrzTYPZdCDH-14" value="" style="endArrow=none;html=1;rounded=0;exitX=0.312;exitY=0.183;exitDx=0;exitDy=0;exitPerimeter=0;" edge="1" parent="1">
          <mxGeometry width="50" height="50" relative="1" as="geometry">
            <mxPoint x="350.0999999999999" y="279.972" as="sourcePoint" />
            <mxPoint x="180" y="280" as="targetPoint" />
          </mxGeometry>
        </mxCell>
        <mxCell id="2TvX9YCltFrzTYPZdCDH-15" value="" style="endArrow=none;html=1;rounded=0;exitX=0.124;exitY=0.183;exitDx=0;exitDy=0;exitPerimeter=0;" edge="1" parent="1">
          <mxGeometry width="50" height="50" relative="1" as="geometry">
            <mxPoint x="350.0999999999999" y="339.94399999999996" as="sourcePoint" />
            <mxPoint x="180" y="280" as="targetPoint" />
          </mxGeometry>
        </mxCell>
        <mxCell id="2TvX9YCltFrzTYPZdCDH-16" value="Sistema" style="shape=umlActor;verticalLabelPosition=bottom;verticalAlign=top;html=1;outlineConnect=0;" vertex="1" parent="1">
          <mxGeometry x="670" y="110" width="50" height="90" as="geometry" />
        </mxCell>
        <mxCell id="2TvX9YCltFrzTYPZdCDH-17" value="" style="endArrow=none;html=1;rounded=0;" edge="1" parent="1">
          <mxGeometry width="50" height="50" relative="1" as="geometry">
            <mxPoint x="480" y="100" as="sourcePoint" />
            <mxPoint x="650" y="160" as="targetPoint" />
          </mxGeometry>
        </mxCell>
        <mxCell id="2TvX9YCltFrzTYPZdCDH-18" value="" style="endArrow=none;html=1;rounded=0;" edge="1" parent="1">
          <mxGeometry width="50" height="50" relative="1" as="geometry">
            <mxPoint x="480" y="160" as="sourcePoint" />
            <mxPoint x="650" y="160" as="targetPoint" />
          </mxGeometry>
        </mxCell>
        <mxCell id="2TvX9YCltFrzTYPZdCDH-19" value="" style="endArrow=none;html=1;rounded=0;" edge="1" parent="1">
          <mxGeometry width="50" height="50" relative="1" as="geometry">
            <mxPoint x="480" y="210" as="sourcePoint" />
            <mxPoint x="650" y="160" as="targetPoint" />
          </mxGeometry>
        </mxCell>
        <mxCell id="2TvX9YCltFrzTYPZdCDH-20" value="" style="endArrow=none;html=1;rounded=0;" edge="1" parent="1">
          <mxGeometry width="50" height="50" relative="1" as="geometry">
            <mxPoint x="480" y="270" as="sourcePoint" />
            <mxPoint x="650" y="160" as="targetPoint" />
          </mxGeometry>
        </mxCell>
        <mxCell id="2TvX9YCltFrzTYPZdCDH-21" value="" style="rounded=0;whiteSpace=wrap;html=1;rotation=-90;fillColor=none;" vertex="1" parent="1">
          <mxGeometry x="247.5" y="125" width="337.5" height="182.5" as="geometry" />
        </mxCell>
        <mxCell id="2TvX9YCltFrzTYPZdCDH-22" value="&lt;div style=&quot;&quot;&gt;&lt;br&gt;&lt;/div&gt;&lt;div style=&quot;&quot;&gt;&lt;div&gt;Cadastrar&lt;/div&gt;&lt;div&gt;&amp;nbsp;no sistema&lt;/div&gt;&lt;div&gt;&lt;br&gt;&lt;/div&gt;&lt;/div&gt;" style="ellipse;whiteSpace=wrap;html=1;fillColor=none;align=center;" vertex="1" parent="1">
          <mxGeometry x="354" y="500" width="120" height="50" as="geometry" />
        </mxCell>
        <mxCell id="2TvX9YCltFrzTYPZdCDH-23" value="&lt;div style=&quot;&quot;&gt;&lt;div&gt;&lt;br&gt;&lt;/div&gt;&lt;div&gt;interagir com o conteúdo&lt;/div&gt;&lt;div&gt;&lt;br&gt;&lt;/div&gt;&lt;/div&gt;" style="ellipse;whiteSpace=wrap;html=1;fillColor=none;align=center;" vertex="1" parent="1">
          <mxGeometry x="354" y="560" width="120" height="50" as="geometry" />
        </mxCell>
        <mxCell id="2TvX9YCltFrzTYPZdCDH-24" value="&lt;div style=&quot;&quot;&gt;&lt;div&gt;&lt;br&gt;&lt;/div&gt;&lt;div&gt;Enviar material&lt;/div&gt;&lt;div&gt;&lt;br&gt;&lt;/div&gt;&lt;/div&gt;" style="ellipse;whiteSpace=wrap;html=1;fillColor=none;align=center;" vertex="1" parent="1">
          <mxGeometry x="354" y="620" width="120" height="50" as="geometry" />
        </mxCell>
        <mxCell id="2TvX9YCltFrzTYPZdCDH-25" value="&lt;div style=&quot;&quot;&gt;&lt;div&gt;&lt;span style=&quot;background-color: initial;&quot;&gt;Atribuir nota&lt;/span&gt;&lt;br&gt;&lt;/div&gt;&lt;/div&gt;" style="ellipse;whiteSpace=wrap;html=1;fillColor=none;align=center;" vertex="1" parent="1">
          <mxGeometry x="354" y="680" width="120" height="50" as="geometry" />
        </mxCell>
        <mxCell id="2TvX9YCltFrzTYPZdCDH-26" value="&lt;div style=&quot;&quot;&gt;&lt;div&gt;Publicar atividade&lt;br&gt;&lt;/div&gt;&lt;/div&gt;" style="ellipse;whiteSpace=wrap;html=1;fillColor=none;align=center;" vertex="1" parent="1">
          <mxGeometry x="354" y="740" width="120" height="50" as="geometry" />
        </mxCell>
        <mxCell id="2TvX9YCltFrzTYPZdCDH-27" value="usuário" style="shape=umlActor;verticalLabelPosition=bottom;verticalAlign=top;html=1;outlineConnect=0;" vertex="1" parent="1">
          <mxGeometry x="100" y="480" width="50" height="90" as="geometry" />
        </mxCell>
        <mxCell id="2TvX9YCltFrzTYPZdCDH-28" value="" style="endArrow=none;html=1;rounded=0;entryX=0.876;entryY=0.183;entryDx=0;entryDy=0;entryPerimeter=0;" edge="1" parent="1">
          <mxGeometry width="50" height="50" relative="1" as="geometry">
            <mxPoint x="160" y="550" as="sourcePoint" />
            <mxPoint x="350.10000000000014" y="530.056" as="targetPoint" />
          </mxGeometry>
        </mxCell>
        <mxCell id="2TvX9YCltFrzTYPZdCDH-29" value="Professor" style="shape=umlActor;verticalLabelPosition=bottom;verticalAlign=top;html=1;outlineConnect=0;" vertex="1" parent="1">
          <mxGeometry x="100" y="640" width="50" height="90" as="geometry" />
        </mxCell>
        <mxCell id="2TvX9YCltFrzTYPZdCDH-32" value="" style="endArrow=none;html=1;rounded=0;exitX=0.5;exitY=0.183;exitDx=0;exitDy=0;exitPerimeter=0;" edge="1" parent="1">
          <mxGeometry width="50" height="50" relative="1" as="geometry">
            <mxPoint x="350.0999999999999" y="650" as="sourcePoint" />
            <mxPoint x="180" y="710" as="targetPoint" />
          </mxGeometry>
        </mxCell>
        <mxCell id="2TvX9YCltFrzTYPZdCDH-33" value="" style="endArrow=none;html=1;rounded=0;exitX=0.312;exitY=0.183;exitDx=0;exitDy=0;exitPerimeter=0;" edge="1" parent="1">
          <mxGeometry width="50" height="50" relative="1" as="geometry">
            <mxPoint x="350.0999999999999" y="709.972" as="sourcePoint" />
            <mxPoint x="180" y="710" as="targetPoint" />
          </mxGeometry>
        </mxCell>
        <mxCell id="2TvX9YCltFrzTYPZdCDH-34" value="" style="endArrow=none;html=1;rounded=0;exitX=0.124;exitY=0.183;exitDx=0;exitDy=0;exitPerimeter=0;" edge="1" parent="1">
          <mxGeometry width="50" height="50" relative="1" as="geometry">
            <mxPoint x="350.0999999999999" y="769.944" as="sourcePoint" />
            <mxPoint x="180" y="710" as="targetPoint" />
          </mxGeometry>
        </mxCell>
        <mxCell id="2TvX9YCltFrzTYPZdCDH-36" value="" style="endArrow=none;html=1;rounded=0;" edge="1" parent="1">
          <mxGeometry width="50" height="50" relative="1" as="geometry">
            <mxPoint x="450" y="490" as="sourcePoint" />
            <mxPoint x="650" y="160" as="targetPoint" />
          </mxGeometry>
        </mxCell>
        <mxCell id="2TvX9YCltFrzTYPZdCDH-40" value="" style="rounded=0;whiteSpace=wrap;html=1;rotation=-90;fillColor=none;" vertex="1" parent="1">
          <mxGeometry x="218.75" y="568.75" width="395" height="200" as="geometry" />
        </mxCell>
        <mxCell id="2TvX9YCltFrzTYPZdCDH-41" value="&lt;div style=&quot;&quot;&gt;&lt;div&gt;Listar atividades&lt;br&gt;&lt;/div&gt;&lt;/div&gt;" style="ellipse;whiteSpace=wrap;html=1;fillColor=none;align=center;" vertex="1" parent="1">
          <mxGeometry x="354" y="800" width="120" height="50" as="geometry" />
        </mxCell>
        <mxCell id="2TvX9YCltFrzTYPZdCDH-42" value="" style="endArrow=none;html=1;rounded=0;" edge="1" parent="1">
          <mxGeometry width="50" height="50" relative="1" as="geometry">
            <mxPoint x="350" y="820" as="sourcePoint" />
            <mxPoint x="180" y="710" as="targetPoint" />
          </mxGeometry>
        </mxCell>
        <mxCell id="2TvX9YCltFrzTYPZdCDH-43" value="" style="endArrow=none;html=1;rounded=0;" edge="1" parent="1">
          <mxGeometry width="50" height="50" relative="1" as="geometry">
            <mxPoint x="160" y="550" as="sourcePoint" />
            <mxPoint x="350" y="580" as="targetPoint" />
          </mxGeometry>
        </mxCell>
      </root>
    </mxGraphModel>
  </diagram>
  <diagram id="DIM9N15C8N11jXYC_nJN" name="Página-2">
    <mxGraphModel dx="872" dy="477" grid="1" gridSize="10" guides="1" tooltips="1" connect="1" arrows="1" fold="1" page="1" pageScale="1" pageWidth="827" pageHeight="1169" math="0" shadow="0">
      <root>
        <mxCell id="0" />
        <mxCell id="1" parent="0" />
        <mxCell id="PbF7q3De8UFRL3Nr6qXC-1" value="Maintenance" style="whiteSpace=wrap;strokeWidth=2;" vertex="1" parent="1">
          <mxGeometry x="43" y="1327" width="281" height="297" as="geometry" />
        </mxCell>
        <mxCell id="PbF7q3De8UFRL3Nr6qXC-2" value="Deployment" style="whiteSpace=wrap;strokeWidth=2;" vertex="1" parent="1">
          <mxGeometry x="20" y="962" width="328" height="315" as="geometry" />
        </mxCell>
        <mxCell id="PbF7q3De8UFRL3Nr6qXC-3" value="Testing" style="whiteSpace=wrap;strokeWidth=2;" vertex="1" parent="1">
          <mxGeometry x="60" y="516" width="248" height="396" as="geometry" />
        </mxCell>
        <mxCell id="PbF7q3De8UFRL3Nr6qXC-4" value="Development" style="whiteSpace=wrap;strokeWidth=2;" vertex="1" parent="1">
          <mxGeometry x="60" y="268" width="248" height="198" as="geometry" />
        </mxCell>
        <mxCell id="PbF7q3De8UFRL3Nr6qXC-5" value="Requirements" style="whiteSpace=wrap;strokeWidth=2;" vertex="1" parent="1">
          <mxGeometry x="22" y="20" width="324" height="198" as="geometry" />
        </mxCell>
        <mxCell id="PbF7q3De8UFRL3Nr6qXC-6" value="Capture User Stories" style="whiteSpace=wrap;strokeWidth=2;" vertex="1" parent="1">
          <mxGeometry x="80" y="45" width="208" height="49" as="geometry" />
        </mxCell>
        <mxCell id="PbF7q3De8UFRL3Nr6qXC-7" value="Define Acceptance Criteria" style="whiteSpace=wrap;strokeWidth=2;" vertex="1" parent="1">
          <mxGeometry x="57" y="144" width="254" height="49" as="geometry" />
        </mxCell>
        <mxCell id="PbF7q3De8UFRL3Nr6qXC-8" value="Design Solution" style="whiteSpace=wrap;strokeWidth=2;" vertex="1" parent="1">
          <mxGeometry x="99" y="293" width="169" height="49" as="geometry" />
        </mxCell>
        <mxCell id="PbF7q3De8UFRL3Nr6qXC-9" value="Implement Code" style="whiteSpace=wrap;strokeWidth=2;" vertex="1" parent="1">
          <mxGeometry x="95" y="392" width="178" height="49" as="geometry" />
        </mxCell>
        <mxCell id="PbF7q3De8UFRL3Nr6qXC-10" value="Write Test Cases" style="whiteSpace=wrap;strokeWidth=2;" vertex="1" parent="1">
          <mxGeometry x="95" y="541" width="178" height="49" as="geometry" />
        </mxCell>
        <mxCell id="PbF7q3De8UFRL3Nr6qXC-11" value="Execute Tests" style="whiteSpace=wrap;strokeWidth=2;" vertex="1" parent="1">
          <mxGeometry x="105" y="640" width="157" height="49" as="geometry" />
        </mxCell>
        <mxCell id="PbF7q3De8UFRL3Nr6qXC-12" value="Report Bugs" style="whiteSpace=wrap;strokeWidth=2;" vertex="1" parent="1">
          <mxGeometry x="111" y="739" width="145" height="49" as="geometry" />
        </mxCell>
        <mxCell id="PbF7q3De8UFRL3Nr6qXC-13" value="Fix Bugs" style="whiteSpace=wrap;strokeWidth=2;" vertex="1" parent="1">
          <mxGeometry x="124" y="838" width="119" height="49" as="geometry" />
        </mxCell>
        <mxCell id="PbF7q3De8UFRL3Nr6qXC-14" value="Build Release" style="whiteSpace=wrap;strokeWidth=2;" vertex="1" parent="1">
          <mxGeometry x="106" y="987" width="156" height="49" as="geometry" />
        </mxCell>
        <mxCell id="PbF7q3De8UFRL3Nr6qXC-15" value="Deploy to Test Environment" style="whiteSpace=wrap;strokeWidth=2;" vertex="1" parent="1">
          <mxGeometry x="55" y="1086" width="258" height="49" as="geometry" />
        </mxCell>
        <mxCell id="PbF7q3De8UFRL3Nr6qXC-16" value="Perform User Acceptance Testing" style="whiteSpace=wrap;strokeWidth=2;" vertex="1" parent="1">
          <mxGeometry x="63" y="1185" width="241" height="67" as="geometry" />
        </mxCell>
        <mxCell id="PbF7q3De8UFRL3Nr6qXC-17" value="Deploy to Production" style="whiteSpace=wrap;strokeWidth=2;" vertex="1" parent="1">
          <mxGeometry x="79" y="1352" width="210" height="49" as="geometry" />
        </mxCell>
        <mxCell id="PbF7q3De8UFRL3Nr6qXC-18" value="Monitor Performance" style="whiteSpace=wrap;strokeWidth=2;" vertex="1" parent="1">
          <mxGeometry x="78" y="1451" width="211" height="49" as="geometry" />
        </mxCell>
        <mxCell id="PbF7q3De8UFRL3Nr6qXC-19" value="Address Issues" style="whiteSpace=wrap;strokeWidth=2;" vertex="1" parent="1">
          <mxGeometry x="102" y="1550" width="163" height="49" as="geometry" />
        </mxCell>
        <mxCell id="PbF7q3De8UFRL3Nr6qXC-20" value="" style="curved=1;startArrow=none;endArrow=block;exitX=0.5;exitY=1;entryX=0.5;entryY=0;rounded=0;" edge="1" parent="1" source="PbF7q3De8UFRL3Nr6qXC-6" target="PbF7q3De8UFRL3Nr6qXC-7">
          <mxGeometry relative="1" as="geometry">
            <Array as="points" />
          </mxGeometry>
        </mxCell>
        <mxCell id="PbF7q3De8UFRL3Nr6qXC-21" value="" style="curved=1;startArrow=none;endArrow=block;exitX=0.5;exitY=1;entryX=0.5;entryY=0;rounded=0;" edge="1" parent="1" source="PbF7q3De8UFRL3Nr6qXC-7" target="PbF7q3De8UFRL3Nr6qXC-8">
          <mxGeometry relative="1" as="geometry">
            <Array as="points" />
          </mxGeometry>
        </mxCell>
        <mxCell id="PbF7q3De8UFRL3Nr6qXC-22" value="" style="curved=1;startArrow=none;endArrow=block;exitX=0.5;exitY=1;entryX=0.5;entryY=0;rounded=0;" edge="1" parent="1" source="PbF7q3De8UFRL3Nr6qXC-8" target="PbF7q3De8UFRL3Nr6qXC-9">
          <mxGeometry relative="1" as="geometry">
            <Array as="points" />
          </mxGeometry>
        </mxCell>
        <mxCell id="PbF7q3De8UFRL3Nr6qXC-23" value="" style="curved=1;startArrow=none;endArrow=block;exitX=0.5;exitY=1;entryX=0.5;entryY=0;rounded=0;" edge="1" parent="1" source="PbF7q3De8UFRL3Nr6qXC-9" target="PbF7q3De8UFRL3Nr6qXC-10">
          <mxGeometry relative="1" as="geometry">
            <Array as="points" />
          </mxGeometry>
        </mxCell>
        <mxCell id="PbF7q3De8UFRL3Nr6qXC-24" value="" style="curved=1;startArrow=none;endArrow=block;exitX=0.5;exitY=1;entryX=0.5;entryY=0;rounded=0;" edge="1" parent="1" source="PbF7q3De8UFRL3Nr6qXC-10" target="PbF7q3De8UFRL3Nr6qXC-11">
          <mxGeometry relative="1" as="geometry">
            <Array as="points" />
          </mxGeometry>
        </mxCell>
        <mxCell id="PbF7q3De8UFRL3Nr6qXC-25" value="" style="curved=1;startArrow=none;endArrow=block;exitX=0.5;exitY=1;entryX=0.5;entryY=0;rounded=0;" edge="1" parent="1" source="PbF7q3De8UFRL3Nr6qXC-11" target="PbF7q3De8UFRL3Nr6qXC-12">
          <mxGeometry relative="1" as="geometry">
            <Array as="points" />
          </mxGeometry>
        </mxCell>
        <mxCell id="PbF7q3De8UFRL3Nr6qXC-26" value="" style="curved=1;startArrow=none;endArrow=block;exitX=0.5;exitY=1;entryX=0.5;entryY=0;rounded=0;" edge="1" parent="1" source="PbF7q3De8UFRL3Nr6qXC-12" target="PbF7q3De8UFRL3Nr6qXC-13">
          <mxGeometry relative="1" as="geometry">
            <Array as="points" />
          </mxGeometry>
        </mxCell>
        <mxCell id="PbF7q3De8UFRL3Nr6qXC-27" value="" style="curved=1;startArrow=none;endArrow=block;exitX=0.5;exitY=1;entryX=0.5;entryY=0;rounded=0;" edge="1" parent="1" source="PbF7q3De8UFRL3Nr6qXC-13" target="PbF7q3De8UFRL3Nr6qXC-14">
          <mxGeometry relative="1" as="geometry">
            <Array as="points" />
          </mxGeometry>
        </mxCell>
        <mxCell id="PbF7q3De8UFRL3Nr6qXC-28" value="" style="curved=1;startArrow=none;endArrow=block;exitX=0.5;exitY=1;entryX=0.5;entryY=0;rounded=0;" edge="1" parent="1" source="PbF7q3De8UFRL3Nr6qXC-14" target="PbF7q3De8UFRL3Nr6qXC-15">
          <mxGeometry relative="1" as="geometry">
            <Array as="points" />
          </mxGeometry>
        </mxCell>
        <mxCell id="PbF7q3De8UFRL3Nr6qXC-29" value="" style="curved=1;startArrow=none;endArrow=block;exitX=0.5;exitY=1;entryX=0.5;entryY=0;rounded=0;" edge="1" parent="1" source="PbF7q3De8UFRL3Nr6qXC-15" target="PbF7q3De8UFRL3Nr6qXC-16">
          <mxGeometry relative="1" as="geometry">
            <Array as="points" />
          </mxGeometry>
        </mxCell>
        <mxCell id="PbF7q3De8UFRL3Nr6qXC-30" value="" style="curved=1;startArrow=none;endArrow=block;exitX=0.5;exitY=0.99;entryX=0.5;entryY=-0.01;rounded=0;" edge="1" parent="1" source="PbF7q3De8UFRL3Nr6qXC-16" target="PbF7q3De8UFRL3Nr6qXC-17">
          <mxGeometry relative="1" as="geometry">
            <Array as="points" />
          </mxGeometry>
        </mxCell>
        <mxCell id="PbF7q3De8UFRL3Nr6qXC-31" value="" style="curved=1;startArrow=none;endArrow=block;exitX=0.5;exitY=0.99;entryX=0.5;entryY=-0.01;rounded=0;" edge="1" parent="1" source="PbF7q3De8UFRL3Nr6qXC-17" target="PbF7q3De8UFRL3Nr6qXC-18">
          <mxGeometry relative="1" as="geometry">
            <Array as="points" />
          </mxGeometry>
        </mxCell>
        <mxCell id="PbF7q3De8UFRL3Nr6qXC-32" value="" style="curved=1;startArrow=none;endArrow=block;exitX=0.5;exitY=0.99;entryX=0.5;entryY=-0.01;rounded=0;" edge="1" parent="1" source="PbF7q3De8UFRL3Nr6qXC-18" target="PbF7q3De8UFRL3Nr6qXC-19">
          <mxGeometry relative="1" as="geometry">
            <Array as="points" />
          </mxGeometry>
        </mxCell>
      </root>
    </mxGraphModel>
  </diagram>
</mxfile>
